<svg width="10" height="10" viewBox="0 0 10 10" fill="none" xmlns="http://www.w3.org/2000/svg">
<path d="M5 0C7.76 0 10 2.29758 10 5.12853C10 7.38508 8.57 9.31341 6.59 9.99038C6.34 10.0417 6.25 9.87755 6.25 9.74421C6.25 9.56984 6.26 9.01596 6.26 8.33899C6.26 7.85691 6.1 7.5492 5.92 7.38508C7.03 7.262 8.2 6.82095 8.2 4.85159C8.2 4.28745 8.01 3.83614 7.69 3.47714C7.74 3.35406 7.91 2.82069 7.64 2.12321C7.64 2.12321 7.22 1.97961 6.26 2.64632C5.86 2.53349 5.44 2.47195 5.01 2.47195C4.59 2.47195 4.16 2.53349 3.76 2.64632C2.81 1.98987 2.39 2.12321 2.39 2.12321C2.11 2.82069 2.29 3.35406 2.34 3.47714C2.02 3.83614 1.83 4.29771 1.83 4.85159C1.83 6.82095 2.99 7.262 4.1 7.38508C3.96 7.51843 3.83 7.74408 3.78 8.07231C3.49 8.20565 2.78 8.42105 2.33 7.65177C2.23 7.49791 1.95 7.1184 1.56 7.12866C1.14 7.12866 1.39 7.36457 1.56 7.46714C1.78 7.59022 2.02 8.04154 2.08 8.18513C2.18 8.47233 2.5 9.02621 3.76 8.7903C3.76 9.2211 3.76 9.62112 3.76 9.74421C3.76 9.87755 3.67 10.0314 3.42 9.99038C1.43 9.31341 0 7.39534 0 5.12853C0 2.29758 2.24 0 5 0Z" fill="#414141"/>
</svg>
