<svg width="10" height="7" viewBox="0 0 10 7" fill="none" xmlns="http://www.w3.org/2000/svg">
<path d="M3.3575 6.9995C2.345 6.9995 1.34375 6.72134 0.5 6.20781C1.47875 6.31479 2.49125 6.04733 3.25625 5.46961C2.5025 5.46961 1.79375 4.98817 1.54625 4.31416C1.625 4.19648 2.12 4.33556 2.35625 4.21788C1.5125 4.0681 0.84875 3.2978 0.87125 2.48471C1.085 2.5489 1.4225 2.69868 1.715 2.67729C0.905 2.19585 0.635 1.0939 1.13 0.323605C2.06375 1.41486 3.4925 2.11026 4.96625 2.16376C4.8425 1.67162 4.955 1.1153 5.28125 0.708753C5.855 -0.0508438 7.07 -0.232719 7.84625 0.323605C8.2175 0.783643 8.81375 0.334304 9.24125 0.163127C9.33125 0.345003 8.8475 0.944121 8.49875 1.1046C8.83625 1.0725 9.17375 0.986915 9.5 0.858533C9.4775 1.04041 8.94875 1.53254 8.63375 1.74651C8.69 2.97684 8.25125 4.21788 7.44125 5.18075C6.47375 6.35758 4.91 7.02089 3.3575 6.9995Z" fill="#414141"/>
</svg>
