<svg width="10" height="6" viewBox="0 0 10 6" fill="none" xmlns="http://www.w3.org/2000/svg">
<path d="M9.49293 4.99895C9.49293 5.17524 9.43637 5.33894 9.35153 5.47745L6.5165 2.65057L9.32325 0.465891C9.4293 0.623289 9.5 0.799591 9.5 0.994764V4.99895H9.49293ZM4.99647 3.16684L8.89906 0.125926C8.73645 0.050375 8.5597 0 8.36174 0H1.62412C1.42616 0 1.24941 0.050375 1.0868 0.125926L4.99647 3.16684ZM6.08523 2.98425L5.18028 3.68941C5.12372 3.73348 5.06009 3.75236 4.99647 3.75236C4.93284 3.75236 4.86214 3.73348 4.81265 3.68941L3.9077 2.98425L1.03731 5.8489C1.20699 5.94334 1.41202 6 1.63119 6H8.36882C8.58798 6 8.78594 5.94334 8.96269 5.8489L6.08523 2.98425ZM0.676748 0.465891C0.570699 0.623289 0.5 0.799591 0.5 0.994764V4.99265C0.5 5.16894 0.55656 5.33264 0.641399 5.47115L3.47643 2.64429L0.676748 0.465891Z" fill="#404142"/>
</svg>
