<svg width="30" height="30" viewBox="0 0 8 8" fill="none" xmlns="http://www.w3.org/2000/svg">
<path d="M7.04249 2.8604V0.794957C7.04249 0.530772 6.84684 0.31462 6.60771 0.31462H6.17293C5.9338 0.31462 5.73815 0.530772 5.73815 0.794957V1.56349L4.29034 0.122486C4.12512 -0.0408286 3.87295 -0.0408286 3.70773 0.122486L0.0729785 3.73942C-0.0748464 3.88352 0.0164572 4.15731 0.216456 4.15731H0.95558V7.51966C0.95558 7.78385 1.15123 8 1.39036 8H3.12948V5.59832C3.12948 5.33413 3.32513 5.11798 3.56426 5.11798H4.43381C4.67294 5.11798 4.86859 5.33413 4.86859 5.59832V8H6.60771C6.84684 8 7.04249 7.78385 7.04249 7.51966V4.15731H7.78161C7.98161 4.15731 8.07726 3.88352 7.92509 3.73942L7.04249 2.8604ZM3.12948 3.19664C3.12948 2.66827 3.52078 2.23597 3.99903 2.23597C4.47729 2.23597 4.86859 2.66827 4.86859 3.19664H3.12948Z" fill="#404142"/>
</svg>
